<svg width="237" height="52" viewBox="0 0 237 52" fill="none" xmlns="http://www.w3.org/2000/svg">
<g clip-path="url(#clip0)">
<path d="M0.611726 50.4891C0.256616 51.1993 0.794355 51.9907 1.59589 51.9907C24.2621 52.0312 41.1755 30.1158 28.7568 5.14649L26.9102 1.44319C26.5247 0.672094 25.439 0.672094 25.0535 1.44319L0.611726 50.4891Z" fill="#65BD7D"/>
<path d="M40.1 27.9243C39.7144 27.1532 38.6187 27.1532 38.2433 27.9243L32.6224 38.9023C29.5989 44.9493 33.4036 52.0109 40.6885 52.0109H50.6011C51.3722 52.0109 51.8795 51.1992 51.5345 50.5093L40.1 27.9243Z" fill="#65BD7D"/>
</g>
<path d="M104.76 39.9171L104.4 39.7513C104.246 39.8618 103.835 40.1382 103.27 40.1382C102.192 40.1382 101.729 39.3645 100.856 37.2093L89.4534 9.02553H85.1902L70.8083 44.946H76.7665L79.5402 37.6514H94.9493L95.2061 38.3698C96.2334 41.2434 97.2606 43.1776 98.5447 44.2828C99.5206 45.1118 100.702 45.6091 102.192 45.6091C103.527 45.6091 104.708 45.2223 105.53 44.6697L105.736 44.2276L104.76 39.9171ZM81.3379 33.0093L87.2447 17.4254L93.1516 33.0093H81.3379Z" fill="#282828"/>
<path d="M104.406 16.6517C103.019 16.6517 101.992 17.0386 101.376 17.4807L101.17 17.9227L102.044 22.1227L102.403 22.2885C102.763 21.9569 103.276 21.8464 103.687 21.9016C104.509 21.9569 105.177 22.8411 106.05 25.1068L113.754 44.946H117.966L128.547 17.7017L128.342 17.3149H123.308L115.86 37.4303L110.621 22.7306C109.286 18.7517 107.539 16.6517 104.406 16.6517Z" fill="#282828"/>
<path d="M155.812 40.1934L155.453 40.0276C155.247 40.1934 154.991 40.3592 154.631 40.3592C153.707 40.3592 153.45 39.4198 153.45 37.9277V27.2621C153.45 19.3043 147.132 16.6517 141.585 16.6517C137.167 16.6517 133.623 18.3648 130.85 21.2385V21.6806L133.675 24.5542H134.086C135.883 22.6753 138.143 21.349 141.071 21.349C144.615 21.349 147.954 23.2832 147.954 27.2621V28.8094C146.105 28.091 143.947 27.5384 141.174 27.5384C134.856 27.5384 129.72 30.3567 129.72 36.4909C129.72 42.4592 134.599 45.6091 139.89 45.6091C143.28 45.6091 146.464 44.2828 148.673 42.0171C149.341 44.2828 151.036 45.6091 153.347 45.6091C154.631 45.6091 155.71 45.2223 156.429 44.6697L156.634 44.2828L155.812 40.1934ZM147.954 34.9435C147.954 38.8119 144.564 41.1881 141.02 41.1881C138.092 41.1881 135.318 39.6408 135.318 36.4909C135.318 33.5067 137.835 31.6278 141.893 31.6278C144.41 31.6278 146.618 32.3462 147.954 32.8988V34.9435Z" fill="#282828"/>
<path d="M187.719 40.1934L187.36 40.0276C187.154 40.1934 186.897 40.3592 186.538 40.3592C185.613 40.3592 185.357 39.4198 185.357 37.9277V7.53345L184.997 7.25714L179.809 8.08607V20.0227C177.601 17.978 174.724 16.6517 171.334 16.6517C163.784 16.6517 158.442 23.0069 158.442 31.1304C158.442 39.1987 163.732 45.6091 171.386 45.6091C175.187 45.6091 178.268 44.0618 180.477 41.6302C181.093 44.117 182.788 45.6091 185.254 45.6091C186.538 45.6091 187.617 45.2223 188.336 44.6697L188.541 44.2828L187.719 40.1934ZM172.259 40.3592C167.277 40.3592 164.143 36.2145 164.143 31.1304C164.143 26.0463 167.277 21.9016 172.259 21.9016C176.625 21.9016 180.272 25.0516 180.272 31.1304C180.272 37.154 176.676 40.3592 172.259 40.3592Z" fill="#282828"/>
<path d="M216.751 40.1934L216.391 40.0276C216.186 40.1934 215.929 40.3592 215.57 40.3592C214.645 40.3592 214.388 39.4198 214.388 37.9277V27.2621C214.388 19.3043 208.071 16.6517 202.523 16.6517C198.106 16.6517 194.562 18.3648 191.788 21.2385V21.6806L194.613 24.5542H195.024C196.822 22.6753 199.082 21.349 202.01 21.349C205.554 21.349 208.892 23.2832 208.892 27.2621V28.8094C207.043 28.091 204.886 27.5384 202.112 27.5384C195.795 27.5384 190.658 30.3567 190.658 36.4909C190.658 42.4592 195.538 45.6091 200.828 45.6091C204.218 45.6091 207.403 44.2828 209.611 42.0171C210.279 44.2828 211.974 45.6091 214.286 45.6091C215.57 45.6091 216.648 45.2223 217.367 44.6697L217.573 44.2828L216.751 40.1934ZM208.892 34.9435C208.892 38.8119 205.502 41.1881 201.958 41.1881C199.031 41.1881 196.257 39.6408 196.257 36.4909C196.257 33.5067 198.774 31.6278 202.831 31.6278C205.348 31.6278 207.557 32.3462 208.892 32.8988V34.9435Z" fill="#282828"/>
<circle cx="232.206" cy="40.8154" r="4.794" fill="#65BD7D"/>
<circle cx="232.206" cy="21.6388" r="4.794" fill="#65BD7D"/>
<defs>
<clipPath id="clip0">
<rect width="51.136" height="51.136" fill="white" transform="translate(0.5 0.864868)"/>
</clipPath>
</defs>
</svg>
